<svg width="20" height="14" viewBox="0 0 20 14" fill="none" xmlns="http://www.w3.org/2000/svg">
<path d="M7.47083 11C7.37177 11.6952 7.02518 12.3314 6.49473 12.7916C5.96429 13.2518 5.2856 13.5052 4.58333 13.5052C3.88107 13.5052 3.20238 13.2518 2.67194 12.7916C2.14149 12.3314 1.7949 11.6952 1.69583 11H0.833334V0.999959C0.833334 0.778946 0.921131 0.566984 1.07741 0.410704C1.23369 0.254423 1.44565 0.166626 1.66667 0.166626H13.3333C13.5543 0.166626 13.7663 0.254423 13.9226 0.410704C14.0789 0.566984 14.1667 0.778946 14.1667 0.999959V2.66663H16.6667L19.1667 6.04663V11H17.4708C17.3705 11.6942 17.0234 12.3291 16.4931 12.7882C15.9628 13.2474 15.2848 13.5001 14.5833 13.5001C13.8819 13.5001 13.2039 13.2474 12.6736 12.7882C12.1433 12.3291 11.7962 11.6942 11.6958 11H7.47083ZM12.5 1.83329H2.5V8.54163C2.8288 8.20596 3.23384 7.95469 3.68063 7.80922C4.12742 7.66375 4.60275 7.62838 5.06615 7.70612C5.52955 7.78386 5.96731 7.9724 6.34218 8.25571C6.71704 8.53902 7.0179 8.9087 7.21917 9.33329H11.9475C12.0875 9.03913 12.275 8.77163 12.5 8.54163V1.83329ZM14.1667 6.83329H17.5V6.59579L15.8267 4.33329H14.1667V6.83329ZM14.5833 11.8333C14.915 11.8333 15.233 11.7016 15.4675 11.4671C15.702 11.2326 15.8338 10.9145 15.8338 10.5829C15.8338 10.2512 15.702 9.9332 15.4675 9.6987C15.233 9.4642 14.915 9.33246 14.5833 9.33246C14.2517 9.33246 13.9337 9.4642 13.6992 9.6987C13.4647 9.9332 13.3329 10.2512 13.3329 10.5829C13.3329 10.9145 13.4647 11.2326 13.6992 11.4671C13.9337 11.7016 14.2517 11.8333 14.5833 11.8333ZM5.83333 10.5833C5.83333 10.4191 5.801 10.2566 5.73818 10.1049C5.67537 9.95328 5.58329 9.81548 5.46722 9.69941C5.35114 9.58334 5.21335 9.49126 5.06169 9.42844C4.91003 9.36563 4.74749 9.33329 4.58333 9.33329C4.41918 9.33329 4.25664 9.36563 4.10498 9.42844C3.95332 9.49126 3.81552 9.58334 3.69945 9.69941C3.58338 9.81548 3.4913 9.95328 3.42848 10.1049C3.36567 10.2566 3.33333 10.4191 3.33333 10.5833C3.33333 10.9148 3.46503 11.2328 3.69945 11.4672C3.93387 11.7016 4.25181 11.8333 4.58333 11.8333C4.91485 11.8333 5.2328 11.7016 5.46722 11.4672C5.70164 11.2328 5.83333 10.9148 5.83333 10.5833Z" fill="#1D211E"/>
</svg>
