<svg width="44" height="32" viewBox="0 0 44 32" fill="none" xmlns="http://www.w3.org/2000/svg">
<rect x="0.5" y="1" width="43" height="30" rx="3.5" fill="white"/>
<rect x="0.5" y="1" width="43" height="30" rx="3.5" stroke="#F2F4F7"/>
<path fill-rule="evenodd" clip-rule="evenodd" d="M12.2268 11.274C11.8575 11.7285 11.2666 12.087 10.6757 12.0358C10.6018 11.4212 10.8911 10.7682 11.2297 10.3649C11.599 9.89757 12.2453 9.56467 12.7685 9.53906C12.83 10.1793 12.59 10.8066 12.2268 11.274ZM12.762 12.1596C12.2414 12.1284 11.7664 12.3224 11.3827 12.4791C11.1358 12.5799 10.9268 12.6653 10.7677 12.6653C10.5892 12.6653 10.3715 12.5754 10.127 12.4744C9.80673 12.342 9.44053 12.1907 9.05652 12.198C8.17631 12.2108 7.35766 12.7293 6.90832 13.5552C5.98503 15.2069 6.66826 17.6524 7.56078 18.9968C7.99781 19.6626 8.52101 20.3924 9.2104 20.3668C9.51369 20.3549 9.73186 20.2586 9.95765 20.159C10.2176 20.0442 10.4876 19.9251 10.9093 19.9251C11.3163 19.9251 11.5745 20.0411 11.8224 20.1526C12.0581 20.2585 12.2844 20.3602 12.6204 20.354C13.3345 20.3412 13.7838 19.6882 14.2208 19.0224C14.6924 18.3078 14.8997 17.6104 14.9311 17.5046L14.9348 17.4923C14.9341 17.4916 14.9282 17.4888 14.918 17.4839C14.7603 17.4088 13.5553 16.8351 13.5437 15.2965C13.5321 14.0051 14.4995 13.3508 14.6518 13.2478C14.6611 13.2415 14.6673 13.2373 14.6702 13.2351C14.0546 12.2876 13.0944 12.1852 12.762 12.1596ZM17.7031 20.2852V10.3047H21.304C23.1629 10.3047 24.4616 11.6363 24.4616 13.5825C24.4616 15.5286 23.1383 16.873 21.2547 16.873H19.1927V20.2852H17.7031ZM19.1953 11.6094H20.9126C22.2053 11.6094 22.9439 12.3264 22.9439 13.5876C22.9439 14.8487 22.2053 15.5721 20.9065 15.5721H19.1953V11.6094ZM29.3769 19.0847C28.983 19.8657 28.1151 20.3587 27.1794 20.3587C25.7945 20.3587 24.8281 19.5008 24.8281 18.2077C24.8281 16.9273 25.7637 16.1911 27.4934 16.0822L29.3523 15.967V15.4164C29.3523 14.6034 28.8414 14.1617 27.9304 14.1617C27.1794 14.1617 26.6316 14.565 26.5208 15.1796H25.179C25.2221 13.8864 26.3916 12.9453 27.9735 12.9453C29.6785 12.9453 30.7865 13.8736 30.7865 15.314V20.2819H29.4077V19.0847H29.3769ZM27.58 19.1716C26.786 19.1716 26.2812 18.7747 26.2812 18.1666C26.2812 17.5392 26.7675 17.1743 27.697 17.1166L29.3527 17.0078V17.5712C29.3527 18.5059 28.5895 19.1716 27.58 19.1716ZM35.362 20.6701C34.7649 22.4178 34.0817 22.994 32.629 22.994C32.5182 22.994 32.1489 22.9812 32.0627 22.9556V21.7584C32.1551 21.7712 32.3828 21.784 32.4998 21.784C33.1584 21.784 33.5277 21.496 33.7554 20.7469L33.8909 20.3052L31.3672 13.0391H32.9245L34.6787 18.9352H34.7095L36.4638 13.0391H37.978L35.362 20.6701Z" fill="black"/>
</svg>
