<svg width="45" height="32" viewBox="0 0 45 32" fill="none" xmlns="http://www.w3.org/2000/svg">
<rect x="1.16667" y="1" width="43" height="30" rx="3.5" fill="white"/>
<rect x="1.16667" y="1" width="43" height="30" rx="3.5" stroke="#F2F4F7"/>
<path fill-rule="evenodd" clip-rule="evenodd" d="M21.4546 20.5608V16.7702H23.4147C24.2179 16.7702 24.8959 16.5015 25.4485 15.9718L25.5812 15.8374C26.5907 14.7406 26.5244 13.0318 25.4485 12.017C24.9106 11.4798 24.1737 11.1887 23.4147 11.2037H20.2682V20.5608H21.4546ZM21.4479 15.6198V12.3516H23.4378C23.8653 12.3516 24.2706 12.5157 24.5728 12.8142C25.214 13.441 25.2287 14.4856 24.6096 15.1348C24.3075 15.4557 23.88 15.6348 23.4378 15.6198H21.4479ZM31.1184 14.662C30.61 14.1919 29.9173 13.9531 29.0404 13.9531C27.913 13.9531 27.0656 14.371 26.5055 15.1992L27.5519 15.8633C27.9351 15.2962 28.4583 15.0127 29.1215 15.0127C29.5415 15.0127 29.9468 15.1694 30.2636 15.4529C30.5731 15.7216 30.75 16.1096 30.75 16.52V16.7961C30.2931 16.5424 29.7183 16.4081 29.0109 16.4081C28.1856 16.4081 27.5224 16.6021 27.0287 16.9975C26.535 17.393 26.2845 17.9153 26.2845 18.5794C26.2697 19.1838 26.5276 19.7584 26.9845 20.1464C27.4487 20.5643 28.0382 20.7732 28.7309 20.7732C29.5488 20.7732 30.1973 20.4076 30.691 19.6763H30.7426V20.5643H31.8774V16.617C31.8774 15.7887 31.6268 15.1321 31.1184 14.662ZM27.901 19.3903C27.6578 19.2112 27.5104 18.9202 27.5104 18.6068C27.5104 18.2561 27.6726 17.9651 27.9895 17.7338C28.3138 17.5025 28.7191 17.3831 29.1981 17.3831C29.8614 17.3756 30.3773 17.5249 30.7458 17.8233C30.7458 18.3307 30.5469 18.771 30.1562 19.1441C29.8025 19.5022 29.3234 19.7037 28.8223 19.7037C28.4906 19.7112 28.1664 19.5992 27.901 19.3903ZM34.4236 23.3716L38.388 14.1562H37.0985L35.2636 18.7527H35.2415L33.3625 14.1562H32.0729L34.6741 20.1481L33.2004 23.3716H34.4236Z" fill="#3C4043"/>
<path d="M17.3601 15.941C17.3601 15.5754 17.3306 15.2097 17.2717 14.8516H12.2682V16.9185H15.1347C15.0168 17.5826 14.6336 18.1795 14.0736 18.5526V19.8957H15.7832C16.7853 18.963 17.3601 17.5826 17.3601 15.941Z" fill="#4285F4"/>
<path d="M12.2642 21.2021C13.6937 21.2021 14.9022 20.7246 15.7791 19.9038L14.0696 18.5607C13.5906 18.889 12.979 19.0755 12.2642 19.0755C10.8789 19.0755 9.70722 18.1279 9.28719 16.8594H7.52605V18.2473C8.42504 20.0605 10.2599 21.2021 12.2642 21.2021Z" fill="#34A853"/>
<path d="M9.29431 16.8539C9.07321 16.1898 9.07321 15.4661 9.29431 14.7945V13.4141H7.53288C6.77377 14.9288 6.77377 16.7196 7.53288 18.2344L9.29431 16.8539Z" fill="#FBBC04"/>
<path d="M12.2642 12.5801C13.0232 12.5651 13.7527 12.8561 14.298 13.3859L15.816 11.8488C14.8506 10.9385 13.5832 10.4385 12.2642 10.4534C10.2599 10.4534 8.42504 11.6026 7.52605 13.4158L9.28719 14.8037C9.70722 13.5277 10.8789 12.5801 12.2642 12.5801Z" fill="#EA4335"/>
</svg>
