<svg width="45" height="32" viewBox="0 0 45 32" fill="none" xmlns="http://www.w3.org/2000/svg">
<rect x="0.833336" y="1" width="43" height="30" rx="3.5" fill="white"/>
<rect x="0.833336" y="1" width="43" height="30" rx="3.5" stroke="#F2F4F7"/>
<path fill-rule="evenodd" clip-rule="evenodd" d="M14.2446 20.9827H11.5791L9.58022 13.1476C9.48534 12.7872 9.2839 12.4685 8.98758 12.3184C8.24809 11.941 7.43322 11.6406 6.54427 11.4892V11.1875H10.8383C11.4309 11.1875 11.8754 11.6406 11.9494 12.1669L12.9866 17.8186L15.6508 11.1875H18.2423L14.2446 20.9827ZM19.7257 20.9827H17.2083L19.2813 11.1875H21.7986L19.7257 20.9827ZM25.0581 13.9004C25.1322 13.3728 25.5767 13.0712 26.0952 13.0712C26.9101 12.9954 27.7978 13.1469 28.5385 13.523L28.983 11.4141C28.2422 11.1124 27.4274 10.9609 26.6879 10.9609C24.2446 10.9609 22.4667 12.3177 22.4667 14.2007C22.4667 15.6333 23.726 16.3854 24.615 16.8386C25.5767 17.2904 25.9471 17.592 25.873 18.0439C25.873 18.7216 25.1322 19.0232 24.3927 19.0232C23.5038 19.0232 22.6148 18.7973 21.8012 18.4199L21.3568 20.5302C22.2457 20.9063 23.2075 21.0578 24.0964 21.0578C26.836 21.1322 28.5385 19.7767 28.5385 17.7422C28.5385 15.1801 25.0581 15.03 25.0581 13.9004ZM37.3504 20.9827L35.3516 11.1875H33.2046C32.7601 11.1875 32.3157 11.4892 32.1675 11.941L28.4661 20.9827H31.0576L31.5749 19.5515H34.759L35.0553 20.9827H37.3504ZM33.5652 13.8281L34.3047 17.5198H32.2318L33.5652 13.8281Z" fill="#172B85"/>
</svg>
