<svg width="44" height="32" viewBox="0 0 44 32" fill="none" xmlns="http://www.w3.org/2000/svg">
<rect x="0.5" y="1" width="43" height="30" rx="3.5" fill="white"/>
<rect x="0.5" y="1" width="43" height="30" rx="3.5" stroke="#F2F4F7"/>
<path fill-rule="evenodd" clip-rule="evenodd" d="M22.232 22.2414C20.6998 23.5303 18.7124 24.3083 16.5406 24.3083C11.6943 24.3083 7.76562 20.4337 7.76562 15.6542C7.76562 10.8746 11.6943 7 16.5406 7C18.7124 7 20.6998 7.77806 22.232 9.06695C23.7643 7.77806 25.7517 7 27.9234 7C32.7698 7 36.6985 10.8746 36.6985 15.6542C36.6985 20.4337 32.7698 24.3083 27.9234 24.3083C25.7517 24.3083 23.7643 23.5303 22.232 22.2414Z" fill="#ED0006"/>
<path fill-rule="evenodd" clip-rule="evenodd" d="M22.232 22.2414C24.1191 20.654 25.3156 18.2919 25.3156 15.6542C25.3156 13.0164 24.1191 10.6543 22.232 9.06695C23.7643 7.77806 25.7517 7 27.9234 7C32.7698 7 36.6985 10.8746 36.6985 15.6542C36.6985 20.4337 32.7698 24.3083 27.9234 24.3083C25.7517 24.3083 23.7643 23.5303 22.232 22.2414Z" fill="#F9A000"/>
<path fill-rule="evenodd" clip-rule="evenodd" d="M22.2399 22.2335C24.1269 20.6462 25.3235 18.284 25.3235 15.6463C25.3235 13.0085 24.1269 10.6464 22.2399 9.05908C20.3528 10.6464 19.1562 13.0085 19.1562 15.6463C19.1562 18.284 20.3528 20.6462 22.2399 22.2335Z" fill="#FF5E00"/>
</svg>
