<svg width="45" height="32" viewBox="0 0 45 32" fill="none" xmlns="http://www.w3.org/2000/svg">
<rect x="1.16667" y="1" width="43" height="30" rx="3.5" fill="white"/>
<rect x="1.16667" y="1" width="43" height="30" rx="3.5" stroke="#F2F4F7"/>
<path fill-rule="evenodd" clip-rule="evenodd" d="M19.5793 24.3273L19.8649 22.4555L19.2286 22.4402H16.1901L18.3018 8.62761C18.3083 8.58578 18.3296 8.54696 18.3607 8.51934C18.3919 8.49171 18.4317 8.47656 18.4733 8.47656H23.5967C25.2977 8.47656 26.4715 8.84163 27.0842 9.56231C27.3715 9.90039 27.5545 10.2538 27.6431 10.6425C27.736 11.0505 27.7375 11.5379 27.6469 12.1325L27.6403 12.1757V12.5568L27.9277 12.7247C28.1696 12.8571 28.3619 13.0086 28.5094 13.1821C28.7551 13.4712 28.914 13.8387 28.9812 14.2742C29.0507 14.7221 29.0277 15.2553 28.914 15.8588C28.7829 16.553 28.571 17.1576 28.2848 17.6523C28.0216 18.1081 27.6862 18.4863 27.288 18.7792C26.9078 19.0577 26.4562 19.269 25.9455 19.4043C25.4505 19.5372 24.8863 19.6042 24.2674 19.6042H23.8687C23.5837 19.6042 23.3067 19.7101 23.0893 19.9C22.8713 20.0938 22.7272 20.3587 22.683 20.6483L22.6528 20.8169L22.1481 24.1161L22.1253 24.2372C22.1192 24.2755 22.1088 24.2946 22.0935 24.3076C22.0799 24.3194 22.0603 24.3273 22.0411 24.3273H19.5793Z" fill="#28356A"/>
<path fill-rule="evenodd" clip-rule="evenodd" d="M28.1958 12.2188C28.1807 12.3196 28.1631 12.4227 28.1435 12.5286C27.4679 16.1073 25.1562 17.3436 22.204 17.3436H20.7008C20.3398 17.3436 20.0355 17.614 19.9793 17.9815L18.9917 24.444C18.9551 24.6853 19.1354 24.9027 19.3713 24.9027H22.0374C22.353 24.9027 22.6212 24.6661 22.671 24.3449L22.6971 24.2052L23.1991 20.9189L23.2314 20.7387C23.2805 20.4164 23.5493 20.1796 23.865 20.1796H24.2637C26.8467 20.1796 28.8688 19.0978 29.4599 15.967C29.7067 14.6592 29.5789 13.5671 28.9256 12.7991C28.7279 12.5676 28.4827 12.3753 28.1958 12.2188Z" fill="#298FC2"/>
<path fill-rule="evenodd" clip-rule="evenodd" d="M27.489 11.9299C27.3857 11.8988 27.2792 11.8707 27.17 11.8453C27.0601 11.8205 26.9477 11.7985 26.8319 11.7793C26.4266 11.7117 25.9824 11.6797 25.5068 11.6797H21.4911C21.3921 11.6797 21.2982 11.7027 21.2142 11.7444C21.0289 11.8363 20.8913 12.0171 20.858 12.2386L20.0037 17.8206L19.9792 17.9833C20.0353 17.6159 20.3396 17.3455 20.7007 17.3455H22.2039C25.1561 17.3455 27.4677 16.1085 28.1434 12.5304C28.1636 12.4245 28.1805 12.3214 28.1957 12.2206C28.0248 12.127 27.8397 12.047 27.6403 11.9788C27.591 11.9619 27.5402 11.9456 27.489 11.9299Z" fill="#22284F"/>
<path fill-rule="evenodd" clip-rule="evenodd" d="M20.8632 12.2367C20.8966 12.0152 21.0341 11.8344 21.2194 11.7431C21.304 11.7013 21.3973 11.6783 21.4963 11.6783H25.512C25.9877 11.6783 26.4318 11.7105 26.8371 11.778C26.9529 11.7971 27.0654 11.8192 27.1752 11.844C27.2845 11.8692 27.391 11.8975 27.4942 11.9284C27.5455 11.9442 27.5963 11.9606 27.646 11.9769C27.8454 12.0451 28.0306 12.1257 28.2015 12.2187C28.4026 10.8962 28.1999 9.99575 27.5068 9.18037C26.7426 8.28261 25.3635 7.89844 23.5986 7.89844H18.4751C18.1147 7.89844 17.8071 8.16881 17.7514 8.53688L15.6174 22.4915C15.5754 22.7676 15.7818 23.0166 16.0516 23.0166H19.2147L20.8632 12.2367Z" fill="#28356A"/>
</svg>
