<svg width="47" height="32" viewBox="0 0 47 32" fill="none" xmlns="http://www.w3.org/2000/svg">
<rect x="0.833344" y="0.5" width="45" height="31" rx="3.5" fill="#FEB4C7"/>
<rect x="0.833344" y="0.5" width="45" height="31" rx="3.5" stroke="#F2F4F7"/>
<path fill-rule="evenodd" clip-rule="evenodd" d="M7.35766 20.5062H5.51303V12H7.35766V20.5062ZM11.9608 12H10.1562C10.1562 13.5654 9.47616 15.0021 8.29049 15.9421L7.57553 16.5087L10.3458 20.5065H12.6235L10.0745 16.8279C11.2827 15.5546 11.9608 13.8415 11.9608 12ZM14.9035 20.5022H13.1615V12H14.9035V20.5022ZM20.165 14.6235V14.9997C19.695 14.6604 19.1276 14.4609 18.5157 14.4609C16.8962 14.4609 15.5833 15.8504 15.5833 17.5643C15.5833 19.2782 16.8962 20.6676 18.5157 20.6676C19.1276 20.6676 19.695 20.4682 20.165 20.1289V20.5048H21.8289V14.6235H20.165ZM20.1612 17.5677C20.1612 18.4034 19.4861 19.081 18.6535 19.081C17.8209 19.081 17.1458 18.4034 17.1458 17.5677C17.1458 16.732 17.8209 16.0547 18.6535 16.0547C19.4861 16.0547 20.1612 16.732 20.1612 17.5677ZM30.1808 14.4609C29.5162 14.4609 28.8871 14.6793 28.4666 15.2818V14.6195H26.8099V20.5005H28.4869V17.4098C28.4869 16.5154 29.0536 16.0775 29.736 16.0775C30.4672 16.0775 30.8876 16.5398 30.8876 17.3976V20.5005H32.5495V16.7604C32.5495 15.3917 31.5212 14.4609 30.1808 14.4609ZM37.7198 14.9997V14.6235H39.3836V20.5048H37.7198V20.1289C37.2497 20.4682 36.6824 20.6676 36.0704 20.6676C34.4509 20.6676 33.138 19.2782 33.138 17.5643C33.138 15.8504 34.4509 14.4609 36.0704 14.4609C36.6824 14.4609 37.2497 14.6604 37.7198 14.9997ZM36.2082 19.081C37.0408 19.081 37.7158 18.4034 37.7158 17.5677C37.7158 16.732 37.0408 16.0547 36.2082 16.0547C35.3755 16.0547 34.7005 16.732 34.7005 17.5677C34.7005 18.4034 35.3755 19.081 36.2082 19.081ZM40.1068 19.5191C40.1068 18.9088 40.5742 18.4141 41.1509 18.4141C41.7275 18.4141 42.195 18.9088 42.195 19.5191C42.195 20.1293 41.7275 20.6241 41.1509 20.6241C40.5742 20.6241 40.1068 20.1293 40.1068 19.5191ZM24.404 14.625V15.391C24.7376 14.9315 25.3591 14.6253 26.0347 14.6253V16.3367C26.028 16.3366 26.0217 16.3359 26.015 16.3359C25.3566 16.3359 24.4079 16.8339 24.4079 17.7603V20.5062H22.7005V14.625H24.404Z" fill="#17120F"/>
</svg>
