<svg width="44" height="32" viewBox="0 0 44 32" fill="none" xmlns="http://www.w3.org/2000/svg">
<rect x="0.499969" y="1" width="43" height="30" rx="3.5" fill="#5A31F4"/>
<rect x="0.499969" y="1" width="43" height="30" rx="3.5" stroke="#F2F4F7"/>
<path d="M24.9344 14.6771C24.9344 16.6095 23.577 17.989 21.6802 17.989H19.8931C19.8733 17.989 19.8538 17.9929 19.8356 18.0005C19.8174 18.008 19.8008 18.0191 19.7869 18.0331C19.773 18.047 19.762 18.0636 19.7545 18.0818C19.747 18.1 19.7432 18.1195 19.7433 18.1392V20.6791C19.7433 20.7188 19.7276 20.7569 19.6995 20.785C19.6714 20.8132 19.6333 20.8291 19.5935 20.8293H18.343C18.3133 20.8292 18.2843 20.8203 18.2596 20.8037C18.2349 20.7872 18.2156 20.7638 18.2041 20.7364C18.1966 20.7185 18.1927 20.6993 18.1925 20.6798V11.5146C18.1924 11.4949 18.1962 11.4754 18.2037 11.4572C18.2112 11.4389 18.2222 11.4224 18.2361 11.4084C18.25 11.3945 18.2666 11.3834 18.2848 11.3758C18.303 11.3683 18.3226 11.3644 18.3423 11.3644H21.6882C23.577 11.3622 24.9344 12.7417 24.9344 14.6771ZM23.3749 14.6771C23.3749 13.5661 22.6159 12.754 21.5864 12.754H19.8931C19.8733 12.754 19.8538 12.7579 19.8356 12.7655C19.8174 12.773 19.8008 12.7841 19.7869 12.7981C19.773 12.812 19.762 12.8286 19.7545 12.8468C19.747 12.865 19.7432 12.8846 19.7433 12.9043V16.4412C19.7433 16.4808 19.7591 16.5188 19.7872 16.5469C19.8153 16.5749 19.8534 16.5907 19.8931 16.5907H21.5864C22.6159 16.5979 23.3749 15.7852 23.3749 14.6771ZM25.3052 19.071C25.2922 18.7746 25.3537 18.4797 25.484 18.2131C25.6142 17.9464 25.8092 17.7165 26.0512 17.5442C26.539 17.1777 27.3017 16.9883 28.4213 16.9491L29.6137 16.907V16.5558C29.6137 15.8519 29.1411 15.5544 28.3821 15.5544C27.623 15.5544 27.1417 15.8229 27.0312 16.2619C27.0222 16.2928 27.0032 16.3198 26.9771 16.3387C26.9511 16.3576 26.9195 16.3674 26.8873 16.3664H25.7095C25.6878 16.367 25.6662 16.3628 25.6463 16.3542C25.6265 16.3455 25.6087 16.3326 25.5944 16.3163C25.5801 16.3 25.5696 16.2808 25.5636 16.26C25.5576 16.2391 25.5563 16.2173 25.5597 16.1959C25.7342 15.1553 26.6015 14.3643 28.4359 14.3643C30.3873 14.3643 31.0918 15.2714 31.0918 17.0028V20.6791C31.0914 20.7192 31.0751 20.7575 31.0465 20.7856C31.0179 20.8138 30.9793 20.8295 30.9391 20.8293H29.7518C29.7121 20.8292 29.674 20.8136 29.6457 20.7858C29.6318 20.7718 29.6208 20.7553 29.6133 20.7371C29.6058 20.7189 29.602 20.6995 29.6021 20.6798V20.4048C29.6025 20.3821 29.596 20.3597 29.5835 20.3407C29.5709 20.3218 29.5529 20.307 29.5318 20.2985C29.5107 20.2899 29.4876 20.2879 29.4653 20.2928C29.4431 20.2976 29.4228 20.3091 29.4072 20.3257C29.051 20.7125 28.4759 20.9918 27.5547 20.9918C26.1995 20.9918 25.3052 20.2879 25.3052 19.071ZM29.6137 18.2742V17.989L28.0695 18.0703C27.2559 18.1117 26.7826 18.4491 26.7826 19.0173C26.7826 19.5311 27.2166 19.8155 27.9749 19.8155C29.0052 19.8155 29.6137 19.2604 29.6137 18.2742ZM32.2841 23.6072V22.5419C32.2844 22.5195 32.2895 22.4975 32.2992 22.4774C32.3089 22.4573 32.3229 22.4395 32.3403 22.4254C32.3576 22.4112 32.3779 22.4011 32.3996 22.3956C32.4213 22.3902 32.4439 22.3896 32.4659 22.3938C32.6477 22.4279 32.8331 22.4454 33.0185 22.4461C33.3372 22.4616 33.6519 22.3699 33.9122 22.1857C34.1726 22.0015 34.3635 21.7355 34.4544 21.4302L34.5314 21.1849C34.5426 21.1519 34.5426 21.1162 34.5314 21.0833L32.0573 14.7409C32.0484 14.7179 32.0451 14.6931 32.0479 14.6686C32.0507 14.6441 32.0594 14.6206 32.0733 14.6002C32.0871 14.5798 32.1058 14.5631 32.1276 14.5514C32.1493 14.5398 32.1736 14.5336 32.1983 14.5334H33.398C33.4286 14.5337 33.4585 14.5432 33.4836 14.5607C33.5088 14.5782 33.5281 14.6028 33.539 14.6313L35.2192 19.1044C35.2297 19.1341 35.2492 19.1598 35.275 19.178C35.3008 19.1962 35.3316 19.206 35.3632 19.206C35.3948 19.206 35.4256 19.1962 35.4513 19.178C35.4771 19.1598 35.4966 19.1341 35.5071 19.1044L36.9663 14.6437C36.9764 14.6132 36.9959 14.5867 37.0221 14.5679C37.0482 14.5491 37.0796 14.5391 37.1117 14.5392H38.3528C38.3777 14.5393 38.4021 14.5455 38.4241 14.5571C38.446 14.5687 38.4649 14.5855 38.4789 14.606C38.493 14.6264 38.5019 14.65 38.5049 14.6746C38.5079 14.6993 38.5048 14.7242 38.496 14.7475L35.8496 21.7908C35.2403 23.4279 34.1955 23.8466 33.0454 23.8466C32.8272 23.8524 32.6091 23.8263 32.3983 23.769C32.3632 23.7597 32.3326 23.7384 32.3117 23.7088C32.2908 23.6792 32.281 23.6432 32.2841 23.6072ZM10.1565 10.8361C8.58029 10.8249 7.05974 11.417 5.9076 12.4906C5.85833 12.5357 5.82762 12.5974 5.82144 12.6638C5.81525 12.7302 5.83405 12.7965 5.87416 12.8498L6.58739 13.8222C6.61052 13.8546 6.64046 13.8815 6.67513 13.9011C6.7098 13.9207 6.74835 13.9324 6.78806 13.9356C6.82777 13.9387 6.86768 13.9331 6.90499 13.9191C6.9423 13.9052 6.97609 13.8833 7.00399 13.8549C7.41827 13.4415 7.91094 13.1147 8.45322 12.8935C8.9955 12.6723 9.57651 12.5613 10.1623 12.5668C12.6081 12.5668 13.8855 14.4042 13.8855 16.2184C13.8855 18.1908 12.5434 19.5782 10.6145 19.6058C9.12406 19.6058 8.00077 18.6196 8.00077 17.3171C8.00233 16.988 8.07702 16.6634 8.21947 16.3666C8.36191 16.0698 8.56856 15.8083 8.82452 15.6008C8.87863 15.5557 8.91283 15.4912 8.91976 15.4212C8.9267 15.3512 8.90581 15.2812 8.8616 15.2264L8.11201 14.2816C8.08934 14.253 8.06117 14.2293 8.02915 14.2117C7.99714 14.1942 7.96193 14.1833 7.9256 14.1795C7.88928 14.1758 7.85257 14.1794 7.81766 14.1901C7.78274 14.2007 7.75032 14.2183 7.72231 14.2417C7.26196 14.6119 6.89046 15.0802 6.63508 15.6124C6.37969 16.1445 6.24689 16.727 6.24641 17.3171C6.24641 19.5594 8.15563 21.3184 10.6014 21.3329H10.6341C13.538 21.2952 15.6377 19.1486 15.6377 16.2148C15.6377 13.6096 13.7154 10.8361 10.1572 10.8361H10.1565Z" fill="white"/>
</svg>
