<svg width="75" height="15" viewBox="0 0 75 15" fill="none" xmlns="http://www.w3.org/2000/svg">
<path d="M3.88042 13.6397C3.50214 13.8679 3.03546 13.5293 3.13502 13.0989L4.01966 9.27453C4.0614 9.0941 3.99998 8.90537 3.86005 8.78406L0.892489 6.21126C0.558724 5.9219 0.736699 5.37355 1.17678 5.33535L5.09994 4.9948C5.28453 4.97877 5.44512 4.86199 5.51725 4.69132L7.03945 1.08971C7.21152 0.682573 7.78849 0.682573 7.96056 1.08971L9.48275 4.69132C9.55488 4.86199 9.71547 4.97877 9.90006 4.9948L13.8232 5.33535C14.2633 5.37355 14.4413 5.9219 14.1075 6.21126L11.1399 8.78406C11 8.90537 10.9386 9.0941 10.9803 9.27453L11.865 13.0989C11.9645 13.5293 11.4979 13.8679 11.1196 13.6397L7.75827 11.612C7.59942 11.5162 7.40058 11.5162 7.24173 11.612L3.88042 13.6397Z" fill="#F1C40F"/>
<path d="M18.8804 13.6397C18.5021 13.8679 18.0355 13.5293 18.135 13.0989L19.0197 9.27453C19.0614 9.0941 19 8.90537 18.8601 8.78406L15.8925 6.21126C15.5587 5.9219 15.7367 5.37355 16.1768 5.33535L20.0999 4.9948C20.2845 4.97877 20.4451 4.86199 20.5173 4.69132L22.0394 1.08971C22.2115 0.682573 22.7885 0.682573 22.9606 1.08971L24.4827 4.69132C24.5549 4.86199 24.7155 4.97877 24.9001 4.9948L28.8232 5.33535C29.2633 5.37355 29.4413 5.9219 29.1075 6.21126L26.1399 8.78406C26 8.90537 25.9386 9.0941 25.9803 9.27453L26.865 13.0989C26.9645 13.5293 26.4979 13.8679 26.1196 13.6397L22.7583 11.612C22.5994 11.5162 22.4006 11.5162 22.2417 11.612L18.8804 13.6397Z" fill="#F1C40F"/>
<path d="M33.8804 13.6397C33.5021 13.8679 33.0355 13.5293 33.135 13.0989L34.0197 9.27453C34.0614 9.0941 34 8.90537 33.8601 8.78406L30.8925 6.21126C30.5587 5.9219 30.7367 5.37355 31.1768 5.33535L35.0999 4.9948C35.2845 4.97877 35.4451 4.86199 35.5173 4.69132L37.0394 1.08971C37.2115 0.682573 37.7885 0.682573 37.9606 1.08971L39.4828 4.69132C39.5549 4.86199 39.7155 4.97877 39.9001 4.9948L43.8232 5.33535C44.2633 5.37355 44.4413 5.9219 44.1075 6.21126L41.14 8.78406C41 8.90537 40.9386 9.0941 40.9803 9.27453L41.865 13.0989C41.9645 13.5293 41.4979 13.8679 41.1196 13.6397L37.7583 11.612C37.5994 11.5162 37.4006 11.5162 37.2417 11.612L33.8804 13.6397Z" fill="#F1C40F"/>
<path d="M48.8804 13.6397C48.5022 13.8679 48.0355 13.5293 48.135 13.0989L49.0197 9.27453C49.0614 9.0941 49 8.90537 48.8601 8.78406L45.8925 6.21126C45.5587 5.9219 45.7367 5.37355 46.1768 5.33535L50.0999 4.9948C50.2845 4.97877 50.4451 4.86199 50.5173 4.69132L52.0395 1.08971C52.2115 0.682573 52.7885 0.682573 52.9606 1.08971L54.4828 4.69132C54.5549 4.86199 54.7155 4.97877 54.9001 4.9948L58.8232 5.33535C59.2633 5.37355 59.4413 5.9219 59.1075 6.21126L56.14 8.78406C56 8.90537 55.9386 9.0941 55.9803 9.27453L56.865 13.0989C56.9646 13.5293 56.4979 13.8679 56.1196 13.6397L52.7583 11.612C52.5994 11.5162 52.4006 11.5162 52.2417 11.612L48.8804 13.6397Z" fill="#F1C40F"/>
<path d="M63.8804 13.6397C63.5022 13.8679 63.0355 13.5293 63.135 13.0989L64.0197 9.27453C64.0614 9.0941 64 8.90537 63.8601 8.78406L60.8925 6.21126C60.5587 5.9219 60.7367 5.37355 61.1768 5.33535L65.0999 4.9948C65.2845 4.97877 65.4451 4.86199 65.5173 4.69132L67.0395 1.08971C67.2115 0.682573 67.7885 0.682573 67.9606 1.08971L69.4828 4.69132C69.5549 4.86199 69.7155 4.97877 69.9001 4.9948L73.8232 5.33535C74.2633 5.37355 74.4413 5.9219 74.1075 6.21126L71.14 8.78406C71 8.90537 70.9386 9.0941 70.9803 9.27453L71.865 13.0989C71.9646 13.5293 71.4979 13.8679 71.1196 13.6397L67.7583 11.612C67.5994 11.5162 67.4006 11.5162 67.2417 11.612L63.8804 13.6397Z" fill="#F1C40F"/>
</svg>
